<mxfile host="app.diagrams.net" modified="2022-08-22T14:03:57.246Z" agent="5.0 (Windows NT 10.0; Win64; x64) AppleWebKit/537.36 (KHTML, like Gecko) Chrome/104.0.0.0 Safari/537.36" etag="M_sotEcLI627RPpI6A9V" version="20.2.6" type="github">
  <diagram id="r2JNNji3gJTeUbbfwlcN" name="Page-1">
    <mxGraphModel dx="1422" dy="794" grid="1" gridSize="10" guides="1" tooltips="1" connect="1" arrows="1" fold="1" page="1" pageScale="1" pageWidth="850" pageHeight="1100" math="0" shadow="0">
      <root>
        <mxCell id="0" />
        <mxCell id="1" parent="0" />
        <mxCell id="qFXIV4Jj-LrcfP0xtu49-1" value="&lt;u&gt;Algorithm&lt;br&gt;&lt;/u&gt;&lt;br&gt;start&lt;br&gt;&lt;br&gt;let highest number be N and initial sum = 0&lt;br&gt;&lt;br&gt;initial count = 0&lt;br&gt;&lt;br&gt;let user enter a number&lt;br&gt;&lt;br&gt;is count &amp;lt; N&lt;br&gt;&lt;br&gt;if yes&lt;br&gt;&lt;br&gt;square the sum&lt;br&gt;&lt;br&gt;sum the square&lt;br&gt;&lt;br&gt;print sum&lt;br&gt;&lt;br&gt;count = count + 1&lt;br&gt;&lt;br&gt;if no&lt;br&gt;&lt;br&gt;go to step 9&lt;br&gt;&lt;br&gt;End&lt;br&gt;" style="whiteSpace=wrap;html=1;aspect=fixed;align=center;" parent="1" vertex="1">
          <mxGeometry x="410" y="200" width="400" height="400" as="geometry" />
        </mxCell>
        <mxCell id="qFXIV4Jj-LrcfP0xtu49-2" value="START" style="ellipse;whiteSpace=wrap;html=1;" parent="1" vertex="1">
          <mxGeometry x="150" y="50" width="60" height="40" as="geometry" />
        </mxCell>
        <mxCell id="qFXIV4Jj-LrcfP0xtu49-3" value="" style="endArrow=classic;html=1;rounded=0;" parent="1" target="qFXIV4Jj-LrcfP0xtu49-4" edge="1">
          <mxGeometry width="50" height="50" relative="1" as="geometry">
            <mxPoint x="180.5" y="90" as="sourcePoint" />
            <mxPoint x="181" y="130" as="targetPoint" />
          </mxGeometry>
        </mxCell>
        <mxCell id="qFXIV4Jj-LrcfP0xtu49-6" value="" style="edgeStyle=orthogonalEdgeStyle;rounded=0;orthogonalLoop=1;jettySize=auto;html=1;" parent="1" source="qFXIV4Jj-LrcfP0xtu49-4" target="qFXIV4Jj-LrcfP0xtu49-5" edge="1">
          <mxGeometry relative="1" as="geometry" />
        </mxCell>
        <mxCell id="qFXIV4Jj-LrcfP0xtu49-4" value="Let highest num be N,&lt;br&gt;Sum = 0" style="rounded=0;whiteSpace=wrap;html=1;" parent="1" vertex="1">
          <mxGeometry x="120" y="110" width="120" height="60" as="geometry" />
        </mxCell>
        <mxCell id="qFXIV4Jj-LrcfP0xtu49-8" value="" style="edgeStyle=orthogonalEdgeStyle;rounded=0;orthogonalLoop=1;jettySize=auto;html=1;" parent="1" source="qFXIV4Jj-LrcfP0xtu49-5" target="qFXIV4Jj-LrcfP0xtu49-7" edge="1">
          <mxGeometry relative="1" as="geometry" />
        </mxCell>
        <mxCell id="qFXIV4Jj-LrcfP0xtu49-5" value="count = 0" style="whiteSpace=wrap;html=1;rounded=0;" parent="1" vertex="1">
          <mxGeometry x="120" y="200" width="120" height="40" as="geometry" />
        </mxCell>
        <mxCell id="qFXIV4Jj-LrcfP0xtu49-10" value="" style="edgeStyle=orthogonalEdgeStyle;rounded=0;orthogonalLoop=1;jettySize=auto;html=1;" parent="1" source="qFXIV4Jj-LrcfP0xtu49-7" target="qFXIV4Jj-LrcfP0xtu49-9" edge="1">
          <mxGeometry relative="1" as="geometry" />
        </mxCell>
        <mxCell id="qFXIV4Jj-LrcfP0xtu49-7" value="Enter Num" style="shape=parallelogram;perimeter=parallelogramPerimeter;whiteSpace=wrap;html=1;fixedSize=1;rounded=0;" parent="1" vertex="1">
          <mxGeometry x="120" y="270" width="120" height="60" as="geometry" />
        </mxCell>
        <mxCell id="qFXIV4Jj-LrcfP0xtu49-12" value="" style="edgeStyle=orthogonalEdgeStyle;rounded=0;orthogonalLoop=1;jettySize=auto;html=1;" parent="1" source="qFXIV4Jj-LrcfP0xtu49-9" target="qFXIV4Jj-LrcfP0xtu49-11" edge="1">
          <mxGeometry relative="1" as="geometry" />
        </mxCell>
        <mxCell id="qFXIV4Jj-LrcfP0xtu49-9" value="Is count &amp;lt; N" style="rhombus;whiteSpace=wrap;html=1;rounded=0;" parent="1" vertex="1">
          <mxGeometry x="140" y="360" width="80" height="80" as="geometry" />
        </mxCell>
        <mxCell id="qFXIV4Jj-LrcfP0xtu49-14" value="" style="edgeStyle=orthogonalEdgeStyle;rounded=0;orthogonalLoop=1;jettySize=auto;html=1;" parent="1" source="qFXIV4Jj-LrcfP0xtu49-11" target="qFXIV4Jj-LrcfP0xtu49-13" edge="1">
          <mxGeometry relative="1" as="geometry" />
        </mxCell>
        <mxCell id="qFXIV4Jj-LrcfP0xtu49-11" value="count = count + 1" style="whiteSpace=wrap;html=1;rounded=0;" parent="1" vertex="1">
          <mxGeometry x="120" y="470" width="120" height="40" as="geometry" />
        </mxCell>
        <mxCell id="qFXIV4Jj-LrcfP0xtu49-16" value="" style="edgeStyle=orthogonalEdgeStyle;rounded=0;orthogonalLoop=1;jettySize=auto;html=1;" parent="1" source="qFXIV4Jj-LrcfP0xtu49-13" target="qFXIV4Jj-LrcfP0xtu49-15" edge="1">
          <mxGeometry relative="1" as="geometry" />
        </mxCell>
        <mxCell id="qFXIV4Jj-LrcfP0xtu49-13" value="Sqr = Num + Num" style="whiteSpace=wrap;html=1;rounded=0;" parent="1" vertex="1">
          <mxGeometry x="120" y="540" width="120" height="50" as="geometry" />
        </mxCell>
        <mxCell id="qFXIV4Jj-LrcfP0xtu49-18" value="" style="edgeStyle=orthogonalEdgeStyle;rounded=0;orthogonalLoop=1;jettySize=auto;html=1;" parent="1" source="qFXIV4Jj-LrcfP0xtu49-15" target="qFXIV4Jj-LrcfP0xtu49-17" edge="1">
          <mxGeometry relative="1" as="geometry" />
        </mxCell>
        <mxCell id="qFXIV4Jj-LrcfP0xtu49-15" value="Sum = Sum +Sqr" style="whiteSpace=wrap;html=1;rounded=0;" parent="1" vertex="1">
          <mxGeometry x="120" y="620" width="120" height="35" as="geometry" />
        </mxCell>
        <mxCell id="qFXIV4Jj-LrcfP0xtu49-20" value="" style="edgeStyle=orthogonalEdgeStyle;rounded=0;orthogonalLoop=1;jettySize=auto;html=1;" parent="1" source="qFXIV4Jj-LrcfP0xtu49-17" target="qFXIV4Jj-LrcfP0xtu49-19" edge="1">
          <mxGeometry relative="1" as="geometry" />
        </mxCell>
        <mxCell id="qFXIV4Jj-LrcfP0xtu49-17" value="Print Sum" style="shape=parallelogram;perimeter=parallelogramPerimeter;whiteSpace=wrap;html=1;fixedSize=1;rounded=0;" parent="1" vertex="1">
          <mxGeometry x="120" y="680" width="120" height="27.5" as="geometry" />
        </mxCell>
        <mxCell id="qFXIV4Jj-LrcfP0xtu49-19" value="END" style="ellipse;whiteSpace=wrap;html=1;rounded=0;" parent="1" vertex="1">
          <mxGeometry x="145" y="730" width="70" height="40" as="geometry" />
        </mxCell>
        <mxCell id="qFXIV4Jj-LrcfP0xtu49-21" value="" style="endArrow=none;html=1;rounded=0;" parent="1" edge="1">
          <mxGeometry width="50" height="50" relative="1" as="geometry">
            <mxPoint x="61" y="690" as="sourcePoint" />
            <mxPoint x="131" y="690" as="targetPoint" />
          </mxGeometry>
        </mxCell>
        <mxCell id="qFXIV4Jj-LrcfP0xtu49-22" value="" style="endArrow=none;html=1;rounded=0;" parent="1" edge="1">
          <mxGeometry width="50" height="50" relative="1" as="geometry">
            <mxPoint x="60" y="690" as="sourcePoint" />
            <mxPoint x="60" y="400" as="targetPoint" />
          </mxGeometry>
        </mxCell>
        <mxCell id="qFXIV4Jj-LrcfP0xtu49-23" value="" style="endArrow=none;html=1;rounded=0;" parent="1" edge="1">
          <mxGeometry width="50" height="50" relative="1" as="geometry">
            <mxPoint x="60" y="400" as="sourcePoint" />
            <mxPoint x="141" y="400" as="targetPoint" />
          </mxGeometry>
        </mxCell>
        <mxCell id="qFXIV4Jj-LrcfP0xtu49-24" value="" style="endArrow=none;html=1;rounded=0;" parent="1" edge="1">
          <mxGeometry width="50" height="50" relative="1" as="geometry">
            <mxPoint x="220" y="399.5" as="sourcePoint" />
            <mxPoint x="360" y="400" as="targetPoint" />
          </mxGeometry>
        </mxCell>
        <mxCell id="qFXIV4Jj-LrcfP0xtu49-25" value="" style="endArrow=none;html=1;rounded=0;" parent="1" edge="1">
          <mxGeometry width="50" height="50" relative="1" as="geometry">
            <mxPoint x="180" y="450" as="sourcePoint" />
            <mxPoint x="360" y="451" as="targetPoint" />
          </mxGeometry>
        </mxCell>
        <mxCell id="qFXIV4Jj-LrcfP0xtu49-26" value="" style="endArrow=none;html=1;rounded=0;" parent="1" edge="1">
          <mxGeometry width="50" height="50" relative="1" as="geometry">
            <mxPoint x="360" y="450" as="sourcePoint" />
            <mxPoint x="360" y="400" as="targetPoint" />
          </mxGeometry>
        </mxCell>
        <mxCell id="DBCuIf-UMLZVe14pFzId-1" value="&lt;div style=&quot;&quot;&gt;Start&lt;/div&gt;&lt;div style=&quot;&quot;&gt;&lt;br&gt;&lt;/div&gt;&lt;div style=&quot;&quot;&gt;&lt;span style=&quot;background-color: initial; white-space: pre;&quot;&gt;	&lt;/span&gt;&lt;span style=&quot;background-color: initial;&quot;&gt;let highest number be N&lt;/span&gt;&lt;br&gt;&lt;/div&gt;&lt;div style=&quot;&quot;&gt;&lt;br&gt;&lt;/div&gt;&lt;div style=&quot;&quot;&gt;&lt;span style=&quot;white-space: pre;&quot;&gt;	&lt;/span&gt;set Sum = 0&lt;br&gt;&lt;/div&gt;&lt;div style=&quot;&quot;&gt;&lt;br&gt;&lt;/div&gt;&lt;div style=&quot;&quot;&gt;&lt;span style=&quot;white-space: pre;&quot;&gt;	&lt;/span&gt;set Count = 0&lt;/div&gt;&lt;div style=&quot;&quot;&gt;&lt;br&gt;&lt;/div&gt;&lt;div style=&quot;&quot;&gt;&lt;span style=&quot;white-space: pre;&quot;&gt;	&lt;/span&gt;Enter Num&lt;br&gt;&lt;/div&gt;&lt;div style=&quot;&quot;&gt;&lt;br&gt;&lt;/div&gt;&lt;div style=&quot;&quot;&gt;&lt;span style=&quot;white-space: pre;&quot;&gt;	&lt;/span&gt;if Count&amp;lt; N&lt;br&gt;&lt;/div&gt;&lt;div style=&quot;&quot;&gt;&lt;br&gt;&lt;/div&gt;&lt;div style=&quot;&quot;&gt;&lt;span style=&quot;white-space: pre;&quot;&gt;	&lt;span style=&quot;white-space: pre;&quot;&gt;	&lt;/span&gt;&lt;/span&gt;then Sqr = num * num&lt;/div&gt;&lt;div style=&quot;&quot;&gt;&lt;br&gt;&lt;/div&gt;&lt;div style=&quot;&quot;&gt;&lt;span style=&quot;white-space: pre;&quot;&gt;	&lt;/span&gt;&lt;span style=&quot;white-space: pre;&quot;&gt;	&lt;/span&gt;sum = sum + sqr&lt;/div&gt;&lt;div style=&quot;&quot;&gt;&lt;br&gt;&lt;/div&gt;&lt;div style=&quot;&quot;&gt;&lt;span style=&quot;white-space: pre;&quot;&gt;	&lt;/span&gt;&lt;span style=&quot;white-space: pre;&quot;&gt;	&lt;/span&gt;print Sum&lt;/div&gt;&lt;div style=&quot;&quot;&gt;&lt;br&gt;&lt;/div&gt;&lt;div style=&quot;&quot;&gt;&lt;span style=&quot;white-space: pre;&quot;&gt;	&lt;/span&gt;Else&amp;nbsp;&lt;/div&gt;&lt;div style=&quot;&quot;&gt;&lt;br&gt;&lt;/div&gt;&lt;div style=&quot;&quot;&gt;&lt;span style=&quot;white-space: pre;&quot;&gt;	&lt;/span&gt;&lt;span style=&quot;white-space: pre;&quot;&gt;	&lt;/span&gt;print Sum&lt;/div&gt;&lt;div style=&quot;&quot;&gt;&lt;br&gt;&lt;/div&gt;&lt;div style=&quot;&quot;&gt;End&lt;br&gt;&lt;/div&gt;" style="whiteSpace=wrap;html=1;aspect=fixed;align=left;" vertex="1" parent="1">
          <mxGeometry x="400" y="670" width="400" height="400" as="geometry" />
        </mxCell>
      </root>
    </mxGraphModel>
  </diagram>
</mxfile>
